<?xml version="1.0" encoding="utf-8"?>
<!-- Generator: Adobe Illustrator 24.0.1, SVG Export Plug-In . SVG Version: 6.00 Build 0)  -->
<svg version="1.1" id="Camada_1" xmlns="http://www.w3.org/2000/svg" xmlns:xlink="http://www.w3.org/1999/xlink" x="0px" y="0px"
	 viewBox="0 0 500 500" style="enable-background:new 0 0 500 500;" xml:space="preserve">
<style type="text/css">
	.st0{stroke:#FFFFFF;stroke-miterlimit:10;}
</style>
<g>
	<path d="M260.35,208.9c1.15-8.09,2.29-6.91-1.58-18.36c5.38-1.31,10.67-2.9,16.06-3.87c23.63-4.25,47.43-4.37,71.26-2.21
		c26.95,2.45,53.72,6.15,80.15,12.12c3.64,0.82,7.18,2.05,10.77,3.09c-0.02,0.35-0.05,0.7-0.07,1.05c-1.71,0.55-3.4,1.15-5.13,1.65
		c-25.11,7.22-50.64,12.41-76.64,14.91c-28.86,2.77-57.53,1.47-85.79-5.58C266.36,210.94,263.44,209.86,260.35,208.9z"/>
	<path d="M143.66,369.73c1.65-6.27,3.2-12.58,4.98-18.81c7.14-25.01,15.75-49.51,27.91-72.55c5.32-10.08,11.4-19.81,17.88-29.19
		c6.44-9.32,13.67-18.13,20.86-26.9c2.98-3.64,6.79-6.61,10.43-10.07c4.06,5.37,9.19,8.02,15.76,8.76c-0.95,3.72-1.49,7.3-2.77,10.6
		c-3.27,8.38-6.52,16.8-10.39,24.91c-19.51,40.9-47.96,75.44-78.03,108.79c-1.71,1.9-3.81,3.45-5.73,5.16
		C144.27,370.18,143.97,369.96,143.66,369.73z"/>
	<path d="M145.73,32.55c26.22,25.09,50.11,52.13,68.59,83.56c10.68,18.16,19.55,37.2,24.87,57.71c0.65,2.52,1.06,5.1,1.63,7.91
		c-6.46,0.99-11.66,3.72-15.45,9.48c-2.25-2.14-4.42-4.02-6.38-6.1c-11.43-12.11-20.56-25.88-28.89-40.21
		c-12.22-21.01-21.67-43.31-30.39-65.92c-4.65-12.06-8.73-24.35-12.9-36.59c-1.04-3.05-1.46-6.31-2.17-9.47
		C145,32.8,145.36,32.67,145.73,32.55z"/>
	<path d="M252.71,481c-6.72,0-12.93,0.01-19.14-0.01c-0.65,0-1.31-0.15-2.2-0.26c0-1.94-0.03-3.77,0-5.59
		c0.72-43.97,1.43-87.94,2.17-131.91c0.43-25.68,0.9-51.36,1.35-77.04c0.04-2.42-0.12-4.86,0.17-7.24c0.29-2.45,0.66-5,1.6-7.26
		c4.05-9.71,7.95-19.45,9.77-29.88c0.12-0.66,0.55-1.27,0.83-1.9c0.36,0.05,0.71,0.1,1.07,0.15
		C249.78,306.88,251.24,393.69,252.71,481z"/>
	<path d="M256.25,201.09c0.09,7.94-6.17,14.45-14.02,14.59c-7.87,0.14-14.39-6.18-14.52-14.08c-0.14-7.95,6.11-14.42,14.02-14.49
		C249.75,187.03,256.16,193.21,256.25,201.09z"/>
	<path d="M179.55,43.16c4.77-2.45,9.39-5.28,14.34-7.28c15.64-6.32,32.13-6.2,48.57-5.45c7.34,0.33,14.63,1.62,21.95,2.48
		c0,0.33-0.01,0.66-0.01,0.99c-0.65,0.07-1.3,0.22-1.94,0.19c-12.37-0.51-24.73-0.13-36.94,1.86c-8.6,1.4-17.05,3.69-25.61,5.39
		c-5.62,1.12-11.31,1.9-16.98,2.8c-0.93,0.15-1.89,0.14-2.84,0.21C179.91,43.96,179.73,43.56,179.55,43.16z"/>
	<path d="M138.32,334.52c-1.11-0.48-2.26-0.89-3.33-1.46c-9.61-5.09-17.61-11.98-23.99-20.85c-9.54-13.26-17.62-27.27-22.98-42.76
		c-0.34-0.98-0.61-1.99-0.35-3.3c0.44,0.73,0.92,1.45,1.33,2.21c8.5,15.98,18.83,30.58,31.5,43.59c6.09,6.25,11.36,13.3,16.98,20.01
		c0.51,0.61,0.84,1.38,1.25,2.07C138.6,334.2,138.46,334.36,138.32,334.52z"/>
	<path d="M377.46,299.56c0.47-0.81,0.91-1.63,1.4-2.42c8.43-13.48,15.28-27.71,20.25-42.83c3.25-9.87,6.62-19.7,9.96-29.53
		c0.39-1.15,0.98-2.23,1.48-3.35c0.25,0.02,0.51,0.03,0.76,0.05c0.16,1.07,0.41,2.13,0.46,3.2c0.52,11.27-1.76,21.92-6.45,32.23
		c-5.21,11.46-11.08,22.48-18.63,32.56c-2.73,3.64-5.69,7.09-8.54,10.63C377.92,299.92,377.69,299.74,377.46,299.56z"/>
</g>
</svg>
