<?xml version="1.0" encoding="utf-8"?>
<!-- Generator: Adobe Illustrator 24.0.1, SVG Export Plug-In . SVG Version: 6.00 Build 0)  -->
<svg version="1.1" id="Camada_1" xmlns="http://www.w3.org/2000/svg" xmlns:xlink="http://www.w3.org/1999/xlink" x="0px" y="0px"
	 viewBox="0 0 500 500" style="enable-background:new 0 0 500 500;" xml:space="preserve">
<style type="text/css">
	.st0{stroke:#FFFFFF;stroke-miterlimit:10;}
</style>
<g>
	<path class="st0" d="M348.49,371.82c4.89,0.18,9.78,0.36,14.64,0.89c0.59,0.06,1.17,0.13,1.76,0.21c0.1,0.01,0.61,0.08,0.19,0.02
		c-0.39-0.06,0.01,0,0.07,0.01c0.35,0.05,0.7,0.1,1.05,0.15c1.2,0.18,2.4,0.39,3.58,0.63c2.37,0.48,4.71,1.09,7.01,1.87
		c0.55,0.19,1.11,0.39,1.65,0.6c0.26,0.1,0.51,0.2,0.77,0.3c0.15,0.06,0.29,0.12,0.44,0.18c0.52,0.21-0.25-0.11,0.03,0.02
		c0.96,0.44,1.91,0.88,2.82,1.44c0.23,0.14,0.46,0.29,0.68,0.44c0.08,0.06,0.16,0.12,0.25,0.18c0.33,0.22-0.42-0.36-0.12-0.1
		c0.4,0.35,0.8,0.7,1.16,1.1c0.09,0.1,0.17,0.2,0.26,0.3c0.21,0.24-0.16-0.19-0.16-0.21c0.02,0.17,0.35,0.52,0.44,0.67
		c0.12,0.21,0.22,0.43,0.33,0.64c0.19,0.36-0.19-0.53-0.06-0.14c0.05,0.16,0.12,0.32,0.17,0.48c0.16,0.49,0.28,0.99,0.38,1.5
		c0.05,0.24,0.08,0.48,0.12,0.72c0.09,0.53,0-0.1-0.02-0.17c0.03,0.17,0.04,0.35,0.06,0.52c0.15,1.28,0.27,2.56,0.47,3.83
		c0.38,2.46,1.32,4.65,2.87,6.59c3,3.75,7.85,5.41,12.48,5.79c2.57,0.21,5.16-0.01,7.72-0.29c2.61-0.29,5.22-0.6,7.84-0.88
		c10.35-1.08,20.84-1.74,31.21-0.53c0.26,0.03,0.52,0.06,0.78,0.1c0.09,0.01,0.25,0.06,0.33,0.04c-0.39,0.09-0.43-0.06-0.12-0.02
		c0.59,0.08,1.19,0.17,1.78,0.27c1.18,0.19,2.36,0.41,3.54,0.65c2.23,0.47,4.45,1.03,6.63,1.71c1.1,0.34,2.2,0.72,3.28,1.12
		c0.52,0.19,1.05,0.4,1.56,0.6c0.14,0.06,0.28,0.11,0.41,0.17c0.09,0.04,0.54,0.23,0.16,0.07c-0.36-0.15-0.01,0,0.06,0.03
		c0.17,0.07,0.34,0.15,0.51,0.22c2.11,0.93,4.16,1.99,6.14,3.18c0.99,0.6,1.96,1.23,2.91,1.89c1.28,0.89,3.36,0.28,4.07-1.07
		c0.8-1.52,0.3-3.11-1.07-4.07c-7.81-5.44-17.05-8.67-26.4-10.2c-10.38-1.7-20.89-1.48-31.33-0.54c-2.63,0.24-5.26,0.51-7.89,0.81
		c-2.63,0.3-5.26,0.66-7.9,0.81c-1.28,0.07-2.57,0.09-3.86,0.01c-0.29-0.02-0.58-0.04-0.87-0.07c-0.16-0.02-0.33-0.03-0.49-0.06
		c0.11,0.02,0.62,0.1,0.05,0c-0.56-0.1-1.11-0.21-1.66-0.36c-0.46-0.12-0.92-0.27-1.37-0.44c-0.12-0.04-0.24-0.09-0.36-0.14
		c-0.31-0.11,0.27,0.12,0.27,0.11c-0.24-0.14-0.53-0.24-0.78-0.37c-0.43-0.22-0.84-0.45-1.24-0.71c-0.21-0.14-0.42-0.28-0.63-0.43
		c-0.07-0.05-0.34-0.25,0,0c0.39,0.28-0.06-0.06-0.14-0.13c-0.36-0.31-0.69-0.64-1.01-0.98c-0.07-0.07-0.62-0.73-0.3-0.35
		c0.27,0.32,0.06,0.08,0.01,0c-0.1-0.16-0.21-0.31-0.31-0.47c-0.23-0.38-0.4-0.78-0.61-1.17c0.38,0.69,0.02,0-0.06-0.25
		c-0.09-0.3-0.17-0.6-0.25-0.9c-0.12-0.5-0.13-1.06-0.28-1.54c0.02,0.07,0.09,0.71,0.02,0.16c-0.01-0.1-0.03-0.21-0.04-0.31
		c-0.04-0.31-0.07-0.63-0.11-0.94c-0.14-1.27-0.27-2.55-0.53-3.8c-0.5-2.43-1.69-4.7-3.54-6.38c-1.91-1.73-4.16-2.82-6.52-3.8
		c-9.23-3.85-19.41-4.62-29.29-5.03c-1.22-0.05-2.44-0.1-3.66-0.14c-1.55-0.06-3.04,1.41-2.97,2.97
		C345.59,370.51,346.82,371.76,348.49,371.82L348.49,371.82z"/>
</g>
<g>
	<path d="M451.88,396.18c-0.04,0-0.07-0.01-0.11-0.02c-0.05-0.01-0.08-0.01-0.11-0.01C451.73,396.18,451.82,396.19,451.88,396.18z"
		/>
	<polygon points="451.89,396.18 451.88,396.18 451.88,396.18 	"/>
	<path d="M449.47,398.66c-0.18,0-0.1,0.1,0.23,0.02c0,0,0,0,0,0C449.63,398.69,449.55,398.67,449.47,398.66z"/>
	<path d="M478.75,406.07c-0.95-0.66-1.92-1.29-2.91-1.89c-1.98-1.19-4.03-2.25-6.14-3.18c-0.17-0.08-0.34-0.15-0.51-0.22
		c0,0-0.01-0.01-0.02-0.01c-0.07-0.03-0.16-0.07-0.19-0.08c-0.14-0.06-0.28-0.11-0.41-0.17c-0.52-0.21-1.04-0.41-1.56-0.6
		c-1.08-0.4-2.18-0.77-3.28-1.12c-2.18-0.68-4.39-1.24-6.63-1.71c-1.17-0.24-2.35-0.46-3.54-0.65c-0.55-0.09-1.11-0.17-1.66-0.25
		c-0.33,0.07-0.4-0.02-0.23-0.03c-0.04-0.01-0.07-0.02-0.1-0.02c-0.26-0.03-0.52-0.06-0.78-0.09c-10.37-1.21-20.86-0.56-31.21,0.53
		c-2.62,0.27-5.23,0.59-7.84,0.88c-2.56,0.28-5.15,0.5-7.72,0.29c-4.63-0.38-9.48-2.04-12.48-5.79c-1.55-1.94-2.5-4.13-2.87-6.59
		c-0.2-1.27-0.32-2.55-0.47-3.83c-0.01-0.07-0.01-0.14-0.02-0.21c-0.01-0.03-0.01-0.08-0.02-0.14c-0.04-0.24-0.08-0.48-0.12-0.72
		c-0.1-0.51-0.22-1.01-0.38-1.5c-0.05-0.14-0.1-0.28-0.15-0.42c-0.1-0.19-0.19-0.38-0.29-0.56c-0.08-0.15-0.38-0.47-0.43-0.64
		c-0.04-0.04-0.07-0.09-0.11-0.13c-0.34-0.38-0.72-0.71-1.1-1.05c-0.06-0.04-0.12-0.09-0.18-0.13c-0.22-0.15-0.45-0.3-0.68-0.44
		c-0.9-0.56-1.86-1-2.82-1.44c-0.01-0.01-0.02-0.01-0.03-0.01c0,0,0,0-0.01,0c-0.15-0.06-0.29-0.12-0.44-0.18
		c-0.25-0.1-0.51-0.2-0.77-0.3c-0.55-0.21-1.1-0.41-1.65-0.6c-2.29-0.78-4.64-1.39-7.01-1.87c-1.19-0.24-2.38-0.45-3.58-0.63
		c-0.32-0.05-0.64-0.1-0.96-0.14c0.05,0.01-0.27-0.04-0.35-0.05c-0.59-0.07-1.17-0.14-1.76-0.21c-4.86-0.53-9.75-0.72-14.64-0.89
		c-1.67-0.06-2.9-1.31-2.97-2.97c-0.01-0.13,0-0.25,0.02-0.38c-1.24,0.34-2.26,1.57-2.2,2.87c0.07,1.66,1.31,2.91,2.97,2.97
		c4.89,0.18,9.78,0.36,14.64,0.89c0.59,0.06,1.17,0.13,1.76,0.21c0.08,0.01,0.39,0.05,0.35,0.05c0.32,0.05,0.64,0.09,0.96,0.14
		c1.2,0.18,2.4,0.39,3.58,0.63c2.37,0.48,4.72,1.09,7.01,1.87c0.55,0.19,1.11,0.39,1.65,0.6c0.26,0.1,0.51,0.2,0.77,0.3
		c0.15,0.06,0.29,0.12,0.44,0.18c0,0,0,0,0.01,0c0.01,0,0.02,0.01,0.03,0.01c0.96,0.44,1.92,0.88,2.82,1.44
		c0.23,0.14,0.46,0.29,0.68,0.44c0.06,0.04,0.12,0.09,0.18,0.13c0.38,0.33,0.76,0.67,1.1,1.05c0.04,0.04,0.07,0.08,0.11,0.13
		c0.05,0.18,0.34,0.5,0.43,0.64c0.11,0.18,0.2,0.38,0.29,0.56c0.05,0.14,0.1,0.28,0.15,0.42c0.16,0.49,0.28,0.99,0.38,1.5
		c0.05,0.24,0.08,0.48,0.12,0.72c0.01,0.06,0.02,0.11,0.03,0.14c0.01,0.07,0.01,0.14,0.02,0.21c0.15,1.28,0.27,2.56,0.47,3.83
		c0.38,2.46,1.32,4.65,2.87,6.59c3,3.75,7.85,5.41,12.48,5.79c2.57,0.21,5.16-0.01,7.72-0.29c2.61-0.29,5.22-0.6,7.84-0.88
		c10.35-1.08,20.84-1.74,31.21-0.53c0.26,0.03,0.52,0.06,0.78,0.1c0.03,0,0.06,0.01,0.1,0.02c0.03,0,0.07,0,0.11,0.01
		c0.04,0.01,0.07,0.01,0.11,0.02c0,0,0.01,0,0.01,0c0,0,0,0-0.01,0c0.56,0.08,1.11,0.16,1.66,0.25c1.18,0.19,2.36,0.41,3.54,0.65
		c2.23,0.47,4.45,1.03,6.63,1.71c1.1,0.34,2.2,0.72,3.28,1.12c0.52,0.19,1.05,0.4,1.56,0.6c0.14,0.06,0.28,0.11,0.41,0.17
		c0.04,0.01,0.12,0.05,0.19,0.08c0.01,0,0.02,0.01,0.02,0.01c0.17,0.07,0.34,0.15,0.51,0.22c2.11,0.93,4.16,1.99,6.14,3.18
		c0.99,0.6,1.96,1.23,2.91,1.89c1.28,0.89,3.36,0.28,4.07-1.07c0.2-0.37,0.32-0.75,0.36-1.13
		C480.22,406.58,479.39,406.51,478.75,406.07z"/>
</g>
<polygon class="st0" points="53.23,358.26 237.36,358.26 405.26,262.2 238.3,200.55 53.23,358.26 "/>
<polygon points="237.36,358.26 203.48,283.12 53.23,358.26 237.36,358.26 "/>
<path class="st0" d="M21,245.99c0.38,1.51,32.23,112.28,32.23,112.28l221.7-110.88L232.6,141.94L21,245.99z"/>
<polygon class="st0" points="232.6,141.94 364.79,164.47 405.26,262.2 274.93,247.38 "/>
<path d="M232.6,141.94l42.33,105.44c0,0-19.1-59.61-11.86-74.26c11.86-23.97,82.22-11.98,82.22-11.98L232.6,141.94z"/>
<path class="st0" d="M346.16,320.73c-1.33-4.18-3.2-8.2-4.13-12.49c-1.59-7.37-0.26-15.02,1.07-22.45
	c1.82-10.15,3.5-19.91,5.32-30.06l-16.08-1.84c1.79,9.56-2.7,19.02-4.87,28.5c-3.04,13.32-1.49,27.23,0.76,40.7
	c0.8,4.81,1.7,9.64,1.84,14.51c0.19,6.57-1,13.08-1.77,19.6c-0.72,6.06-1.08,12.16-1.45,18.26c-0.13,2.17-0.09,4.72,1.67,6
	c0.79,0.57,1.79,0.76,2.75,0.93c4.33,0.77,8.9,1.53,13.03,0.03c1.26-0.46,2.52-1.2,3.06-2.43c0.38-0.87,0.35-1.86,0.31-2.81
	C347.09,358.27,351.89,338.77,346.16,320.73z"/>
<path d="M346.16,320.75c-1.33-4.18-3.2-8.2-4.13-12.49c-1.59-7.37-0.26-15.02,1.07-22.45c1.82-10.15,3.5-19.91,5.32-30.06l-5.27-0.6
	c-1.71,9.6-3.32,18.88-5.05,28.51c-1.33,7.42-2.66,15.07-1.07,22.45c0.92,4.29,2.8,8.31,4.13,12.49
	c5.73,18.04,0.92,37.54,1.53,56.46c0.03,0.95,0.07,1.94-0.31,2.81c-0.54,1.23-1.8,1.97-3.06,2.43c-3.71,1.35-7.76,0.88-11.68,0.21
	c0.23,0.37,0.53,0.71,0.9,0.98c0.79,0.57,1.79,0.76,2.75,0.93c4.33,0.77,8.9,1.53,13.03,0.03c1.26-0.46,2.52-1.2,3.06-2.43
	c0.38-0.87,0.35-1.86,0.31-2.81C347.09,358.29,351.89,338.78,346.16,320.75z"/>
<g>
	<path class="st0" d="M324.08,364.03c3.9,1.58,7.98,2.52,12.15,3.01c4.13,0.49,8.27,0.34,12.38-0.27c1.08-0.16,2.19-0.33,3.25-0.61
		c1.24-0.33,2.31-1.23,2.65-2.5c0.44-1.67-0.54-3.68-2.32-4.06c-0.78-0.16-1.58-0.11-2.29,0.3c-0.62,0.36-1.2,1.07-1.37,1.78
		c-0.17,0.76-0.14,1.61,0.3,2.29c0.4,0.63,1.02,1.21,1.78,1.37c0.02,0.01,0.05,0.01,0.07,0.02c-0.24-0.1-0.47-0.2-0.71-0.3
		c0.02,0.01,0.04,0.02,0.06,0.04c-0.2-0.16-0.4-0.31-0.6-0.46c0.02,0.02,0.03,0.04,0.05,0.05c-0.15-0.2-0.31-0.4-0.46-0.6
		c0.01,0.02,0.02,0.04,0.04,0.07c-0.1-0.24-0.2-0.47-0.3-0.71c0.01,0.02,0.01,0.05,0.02,0.07c-0.04-0.26-0.07-0.53-0.11-0.79
		c0.01,0.05,0.01,0.11,0,0.16c0.04-0.26,0.07-0.53,0.11-0.79c-0.01,0.03-0.01,0.05-0.02,0.08c0.1-0.24,0.2-0.47,0.3-0.71
		c-0.01,0.02-0.03,0.05-0.04,0.07c0.16-0.2,0.31-0.4,0.46-0.6c-0.04,0.05-0.09,0.1-0.14,0.13c0.2-0.15,0.4-0.31,0.6-0.46
		c-0.06,0.04-0.11,0.07-0.18,0.09c0.24-0.1,0.47-0.2,0.71-0.3c-0.62,0.21-1.29,0.3-1.93,0.42c-0.68,0.12-1.36,0.23-2.05,0.33
		c0.26-0.04,0.53-0.07,0.79-0.11c-3.89,0.52-7.84,0.52-11.73,0c0.26,0.04,0.53,0.07,0.79,0.11c-3.67-0.49-7.26-1.44-10.7-2.83
		c-0.67-0.27-1.7-0.05-2.29,0.3c-0.62,0.36-1.2,1.07-1.37,1.78c-0.17,0.76-0.14,1.61,0.3,2.29c0.15,0.2,0.31,0.4,0.46,0.6
		C323.14,363.63,323.57,363.89,324.08,364.03L324.08,364.03z"/>
</g>
<path d="M351.88,363.78c-1.06,0.28-2.17,0.45-3.25,0.61c-4.11,0.61-8.25,0.75-12.38,0.27c-4.17-0.49-8.25-1.44-12.15-3.01
	c-0.5-0.14-0.94-0.4-1.31-0.76c-0.15-0.2-0.31-0.4-0.46-0.6c-0.06-0.1-0.11-0.19-0.16-0.3c-0.06,0.13-0.11,0.27-0.14,0.4
	c-0.17,0.76-0.14,1.61,0.3,2.29c0.16,0.2,0.31,0.4,0.46,0.6c0.37,0.37,0.81,0.62,1.31,0.76c3.9,1.58,7.98,2.52,12.15,3.01
	c4.13,0.49,8.27,0.34,12.38-0.27c1.08-0.16,2.19-0.33,3.25-0.61c1.24-0.33,2.31-1.23,2.65-2.5c0.18-0.67,0.12-1.39-0.12-2.04
	C353.98,362.72,353,363.48,351.88,363.78z"/>
<g>
	<path class="st0" d="M324.66,357.08c2.74,3.22,5.58,6.36,8.5,9.41c1.39,1.44,2.78,2.89,4.36,4.14c1.75,1.39,3.59,2.54,5.63,3.43
		c2.31,1.01,4.68,1.85,7.13,2.45c0.76,0.19,1.61,0.1,2.29-0.3c0.62-0.36,1.2-1.07,1.37-1.78c0.35-1.53-0.46-3.26-2.08-3.66
		c-2.07-0.5-4.09-1.16-6.05-1.99c0.24,0.1,0.47,0.2,0.71,0.3c-1.82-0.78-3.56-1.72-5.14-2.92c0.2,0.15,0.4,0.31,0.6,0.46
		c-1.9-1.47-3.56-3.23-5.21-4.97c-1.74-1.82-3.44-3.68-5.11-5.57c-0.95-1.07-1.88-2.14-2.8-3.23c-0.47-0.55-1.4-0.87-2.1-0.87
		c-0.73,0-1.6,0.32-2.1,0.87c-0.52,0.57-0.91,1.31-0.87,2.1C323.82,355.81,324.12,356.45,324.66,357.08L324.66,357.08z"/>
</g>
<path d="M351.95,374.41c-2.45-0.6-4.82-1.44-7.13-2.45c-2.04-0.9-3.89-2.05-5.63-3.43c-1.57-1.25-2.97-2.7-4.36-4.14
	c-2.93-3.05-5.77-6.19-8.5-9.41c-0.53-0.63-0.83-1.28-0.87-2.1c-0.01-0.19,0.01-0.38,0.05-0.56c-0.31,0.14-0.6,0.34-0.81,0.57
	c-0.52,0.57-0.91,1.31-0.87,2.1c0.04,0.82,0.34,1.47,0.87,2.1c2.74,3.22,5.57,6.36,8.5,9.41c1.39,1.44,2.78,2.89,4.36,4.14
	c1.75,1.39,3.59,2.54,5.63,3.43c2.31,1.01,4.68,1.85,7.13,2.45c0.76,0.19,1.61,0.1,2.29-0.3c0.62-0.36,1.2-1.07,1.37-1.78
	c0.02-0.07,0.03-0.14,0.04-0.21C353.36,374.53,352.62,374.58,351.95,374.41z"/>
<g>
	<path class="st0" d="M354.56,360.54c0.53-1.56,1.11-3.1,1.75-4.62c-0.1,0.24-0.2,0.47-0.3,0.71c1.12-2.66,2.42-5.24,3.88-7.73
		c0.79-1.34,0.35-3.32-1.07-4.07c-1.43-0.75-3.23-0.37-4.07,1.07c-2.42,4.13-4.4,8.53-5.92,13.06c-0.24,0.71-0.07,1.66,0.3,2.29
		c0.36,0.62,1.07,1.2,1.78,1.37C352.55,362.99,354.03,362.12,354.56,360.54L354.56,360.54z"/>
</g>
<g>
	<path class="st0" d="M353.81,361.9c0.35-0.06,0.7-0.12,1.05-0.17c-0.26,0.04-0.53,0.07-0.79,0.11c2.07-0.27,4.15-0.27,6.22-0.01
		c-0.26-0.04-0.53-0.07-0.79-0.11c2.06,0.28,4.08,0.82,6,1.62c-0.24-0.1-0.47-0.2-0.71-0.3c0.16,0.07,0.33,0.14,0.49,0.21
		c0.75,0.34,1.46,0.53,2.29,0.3c0.69-0.19,1.44-0.72,1.78-1.37c0.36-0.69,0.55-1.53,0.3-2.29c-0.22-0.69-0.67-1.47-1.37-1.78
		c-1.29-0.57-2.59-1.09-3.95-1.47c-1.39-0.39-2.8-0.62-4.24-0.8c-2.63-0.32-5.26-0.16-7.86,0.3c-0.7,0.13-1.43,0.78-1.78,1.37
		c-0.37,0.64-0.53,1.58-0.3,2.29c0.23,0.72,0.68,1.41,1.37,1.78C352.26,362,352.98,362.05,353.81,361.9L353.81,361.9z"/>
</g>
</svg>
