<?xml version="1.0" encoding="utf-8"?>
<!-- Generator: Adobe Illustrator 24.0.1, SVG Export Plug-In . SVG Version: 6.00 Build 0)  -->
<svg version="1.1" id="Camada_1" xmlns="http://www.w3.org/2000/svg" xmlns:xlink="http://www.w3.org/1999/xlink" x="0px" y="0px"
	 viewBox="0 0 500 500" style="enable-background:new 0 0 500 500;" xml:space="preserve">
<style type="text/css">
	.st0{stroke:#FFFFFF;stroke-miterlimit:10;}
</style>
<g>
	<path d="M437.68,445.6c-9.53-11.8-18.65-23.97-28.72-35.29c-9.02-10.14-15.81-10.56-31.27-4.08c-19.09,8-51.02,9.77-65.75-1.29
		c-32.01-24.02-58.08-56.73-83.61-88.29c-11.43-14.13-18.35-33.43-22.59-51.5c-5.35-22.77-1.38-44.24,24.63-54.93
		c19.03-7.82,25.6-22.41,23.34-43.24c-1.68-15.49-0.96-31.79,1.96-47.11c4.82-25.33,22.83-32.93,39.99-14.51
		c13.37,14.35,23.69,35.46,26.52,54.86c5.24,36.04,19.88,65.23,41.96,93.58c22.49,28.86,43.81,59.87,58.68,93.06
		c13.03,29.08,16.4,62.48,24.04,93.97C443.8,442.42,440.74,444.01,437.68,445.6z M230.52,290.75
		c35.38-27.71,96.93-38.11,83.79-96.66c-5.67-25.26-6.72-66.1-43.94-83.26c-2.76,8.77-6.26,14.01-5.57,18.62
		c6.65,43.84-8.4,77.29-41.06,107.6C208.95,250.79,207.26,275.54,230.52,290.75z"/>
	<path d="M242,145.51c0,12.53,0,25.06,0,41.55c-62,10.4-128.97-12.89-187.4,23.59c-9.95-76.37,99.7-140.63,195.42-111.77
		c-2.91,15.49-5.92,31.56-8.92,47.62c2.88-20.58,11.73-45.28-22.58-46.3c-40.71-1.21-77.43,12.24-109.32,31.66
		c8.58,14.26,15.25,25.35,23.23,38.63c14.87-1.31,31.51-3.72,48.19-4c17.24-0.29,34.51,1.5,51.77,2.38c0.28-3.3,0.56-6.6,0.83-9.9
		c-23.8-1.69-47.6-3.38-71.4-5.07c-0.01-1.42-0.01-2.84-0.02-4.25C188.54,148.26,215.27,146.89,242,145.51z"/>
	<path d="M384.14,442.16c-40.7,2.32-84.22,4.8-128.82,7.34c6.94-6.61,15.19-14.46,23.3-22.19c-24.25-1.48-48.3-2.95-74.89-4.58
		C248.8,401.83,335.02,412.9,384.14,442.16z"/>
</g>
</svg>
