<?xml version="1.0" encoding="utf-8"?>
<!-- Generator: Adobe Illustrator 24.0.1, SVG Export Plug-In . SVG Version: 6.00 Build 0)  -->
<svg version="1.1" id="Camada_1" xmlns="http://www.w3.org/2000/svg" xmlns:xlink="http://www.w3.org/1999/xlink" x="0px" y="0px"
	 viewBox="0 0 500 500" style="enable-background:new 0 0 500 500;" xml:space="preserve">
<style type="text/css">
	.st0{stroke:#FFFFFF;stroke-miterlimit:10;}
</style>
<path d="M464.03,385.62c-20.6,11.19-41.77,19.08-64.68,21.97c-18.05,2.28-35.59,0.81-52.11-7.34
	c-21.4-10.56-34.28-28.61-42.27-50.31c-2.58-7.01-6.47-11.52-13.13-14.23c-5.03-2.04-9.96-4.36-15.52-6.82
	c3.61,14.42,6.9,28.06,10.44,41.62c4.57,17.53,5.12,34.99,1.25,52.82c-3.53,16.24-4.26,32.69,1.9,48.66c1.54,3.99,3.74,7.72,5.85,12
	c-23.06,0-45.85,0-70.04,0c3.8-7.8,7.1-14.97,10.75-21.97c4.45-8.55,9.46-16.83,13.74-25.46c6.28-12.68,6.01-26.4,5.6-40.12
	c-0.52-17.48-4.33-34.25-10.34-50.59c-2.71-7.38-7.67-12.57-15.68-12.45c-4.54,0.07-9.05,2.67-12.84,3.89
	c1.13,12.44,2.95,23.95,3.09,35.48c0.47,37.24-17.73,64.25-52.48,78.96c-21.98,9.31-45.13,12.35-68.78,12.6
	c-2.28,0.02-4.29,0.01-4.6-3.12c-2.82-28.15-2.05-55.94,9.22-82.44c10.2-23.98,27.73-39.87,53.22-46.49
	c0.95-0.25,1.84-0.68,1.51-0.55c-8.66-4.69-18.62-8.81-27.12-14.94c-19.54-14.11-28.14-34.85-31.89-57.9
	c-3.41-20.95-2.1-41.81,1.86-62.57c0.46-2.42,0.96-4.01,3.97-3.74c29.72,2.61,58.29,8.91,82.9,26.96
	c26.56,19.49,35.14,46.51,31.7,78.27c-0.37,3.46-0.98,6.9-1.47,10.35c-0.02,0.14,0.11,0.31,0.41,1.08
	c8.75-6.73,16.12-14.45,22.06-23.5c0.7-1.07,0.41-2.91,0.33-4.38c-1.4-25.62,3.17-49.97,14.87-72.96
	c2.92-5.73,4.75-12.04,6.87-18.15c1.16-3.35,0.32-6.14-2.24-9.01c-12.63-14.16-22.99-29.74-27.3-48.58
	c-5.85-25.56,1.56-48.07,16.67-68.48c14.6-19.72,33.46-34.62,55.28-47.19c2.3,3.02,4.69,5.92,6.84,9
	c14.32,20.54,25.74,42.37,29.44,67.53c4.49,30.57-5.17,55.94-29.05,75.38c-8.19,6.67-17.79,11.59-26.69,17.41
	c-1.38,0.9-2.96,2.11-3.51,3.54c-4.19,11-8.55,21.95-12.05,33.17c-4.05,12.96-7.67,26.09-10.73,39.32c-1.8,7.8,4.22,13.01,11.87,9.6
	c9.62-4.28,18.46-10.38,27.41-16.04c1.21-0.76,1.55-3.51,1.61-5.37c0.54-16.23,2.45-32.2,8.91-47.29
	c11.35-26.53,32.23-41.29,59.74-47.21c24.85-5.35,49.64-3.53,74.25,2.19c0.62,0.14,1.21,0.41,3.15,1.09
	c-2.37,12.12-4.24,24.41-7.24,36.43c-4.64,18.58-12.37,35.84-24.81,50.67c-19.09,22.77-43.96,30.73-72.78,27.57
	c-8.54-0.94-16.9-3.45-25.37-5.08c-1.47-0.28-3.43-0.24-4.6,0.52c-10.74,6.98-21.4,14.09-31.99,21.29
	c-11.58,7.88-11.55,9.23,0.9,15.13c7.65,3.63,15.53,6.82,23.44,9.86c1.24,0.48,3.38-0.57,4.77-1.44
	c13.07-8.19,26.84-14.76,42.07-17.69c28.48-5.49,52.52,3.43,72.94,23.21C442.45,338.12,454.61,360.68,464.03,385.62z"/>
</svg>
